<?xml version="1.0" encoding="UTF-8"?>
<svg width="100px" height="16px" viewBox="0 0 100 16" version="1.1" xmlns="http://www.w3.org/2000/svg" xmlns:xlink="http://www.w3.org/1999/xlink">
    <title>Logo@1.5x</title>
    <g id="Page-1" stroke="none" stroke-width="1" fill="none" fill-rule="evenodd">
        <g id="Login" transform="translate(-204.000000, -20.000000)" fill="#292A2C" fill-rule="nonzero">
            <g id="Header/Logo" transform="translate(204.000000, 20.000000)">
                <path d="M8.0059147,7.98899591 L9.86480779,7.98899591 C9.79439483,7.31407271 9.62540625,6.73085984 9.35783696,6.23933978 C9.09026766,5.74781964 8.7487699,5.34067104 8.33333334,5.01788171 C7.91789684,4.69509238 7.43909585,4.45667203 6.89691595,4.30261348 C6.35473607,4.14855494 5.77383779,4.07152683 5.15420364,4.07152683 C4.29516541,4.07152683 3.54175793,4.22925106 2.89395861,4.54470426 C2.24615928,4.86015748 1.70750814,5.29298212 1.27798902,5.84319119 C0.848469902,6.3934003 0.528095693,7.03896924 0.316856782,7.77991748 C0.105617871,8.52086572 0,9.3168229 0,10.167813 C0,11.018803 0.109138467,11.8000882 0.327418675,12.5116919 C0.545698882,13.2232956 0.869593686,13.8358525 1.29911281,14.3493811 C1.72863193,14.8629095 2.26376247,15.259054 2.9045205,15.5378266 C3.54527853,15.8165992 4.28108303,15.9559835 5.11195608,15.9559835 C6.50613289,15.9559835 7.60807933,15.5745109 8.41782849,14.8115544 C9.22757766,14.0485978 9.73102287,12.9628682 9.92817913,11.5543329 L8.0904098,11.5543329 C7.97774905,12.4346674 7.67145723,13.1169164 7.17152516,13.6011005 C6.67159307,14.0852844 5.97803573,14.3273728 5.09083229,14.3273728 C4.52752854,14.3273728 4.04168632,14.2099966 3.6332911,13.9752407 C3.22489587,13.7404848 2.89395987,13.4287044 2.64047318,13.03989 C2.38698649,12.6510755 2.20039492,12.207247 2.08069286,11.7083907 C1.96099082,11.2095344 1.90114069,10.6960136 1.90114069,10.167813 C1.90114069,9.59559549 1.95747023,9.04172668 2.07013098,8.50618984 C2.18279173,7.97065302 2.36938329,7.49748031 2.62991128,7.08665749 C2.89043928,6.67583474 3.23897825,6.34571421 3.67553866,6.0962861 C4.11209908,5.84685799 4.65427082,5.72214578 5.30207015,5.72214578 C6.06253023,5.72214578 6.66807269,5.9202181 7.1187157,6.31636864 C7.5693587,6.71251917 7.86508878,7.27005602 8.0059147,7.98899591 L8.0059147,7.98899591 L8.0059147,7.98899591 L8.0059147,7.98899591 Z M12.9145543,10.0357634 C12.9145543,9.34616803 13.0025692,8.73361112 13.1786016,8.19807428 C13.354634,7.66253744 13.5975552,7.21137279 13.9073722,6.84456675 C14.2171893,6.47776069 14.5798107,6.19899228 14.9952472,6.00825307 C15.4106837,5.81751394 15.8507582,5.72214578 16.3154838,5.72214578 C16.7802094,5.72214578 17.2202838,5.81751394 17.6357204,6.00825307 C18.0511569,6.19899228 18.4137783,6.47776069 18.7235953,6.84456675 C19.0334125,7.21137279 19.2763335,7.66253744 19.4523659,8.19807428 C19.6283983,8.73361112 19.7164133,9.34616803 19.7164133,10.0357634 C19.7164133,10.7253588 19.6283983,11.3379157 19.4523659,11.8734525 C19.2763335,12.4089894 19.0334125,12.856486 18.7235953,13.215956 C18.4137783,13.575426 18.0511569,13.8505264 17.6357204,14.0412654 C17.2202838,14.2320047 16.7802094,14.3273728 16.3154838,14.3273728 C15.8507582,14.3273728 15.4106837,14.2320047 14.9952472,14.0412654 C14.5798107,13.8505264 14.2171893,13.575426 13.9073722,13.215956 C13.5975552,12.856486 13.354634,12.4089894 13.1786016,11.8734525 C13.0025692,11.3379157 12.9145543,10.7253588 12.9145543,10.0357634 L12.9145543,10.0357634 L12.9145543,10.0357634 L12.9145543,10.0357634 Z M11.0134136,10.0357634 C11.0134136,10.8720812 11.1260728,11.6496984 11.3513942,12.3686383 C11.5767157,13.0875781 11.9146929,13.7148071 12.3653359,14.2503438 C12.8159789,14.7858807 13.372233,15.2040333 14.034115,15.5048143 C14.6959968,15.8055953 15.4564456,15.9559835 16.3154838,15.9559835 C17.1886046,15.9559835 17.9525739,15.8055953 18.6074145,15.5048143 C19.2622552,15.2040333 19.8149887,14.7858807 20.2656317,14.2503438 C20.7162746,13.7148071 21.0542518,13.0875781 21.2795734,12.3686383 C21.5048948,11.6496984 21.6175539,10.8720812 21.6175539,10.0357634 C21.6175539,9.1994456 21.5048948,8.41816049 21.2795734,7.69188445 C21.0542518,6.96560849 20.7162746,6.33471154 20.2656317,5.7991747 C19.8149887,5.26363786 19.2622552,4.84181723 18.6074145,4.53370014 C17.9525739,4.22558306 17.1886046,4.07152683 16.3154838,4.07152683 C15.4564456,4.07152683 14.6959968,4.22558306 14.034115,4.53370014 C13.372233,4.84181723 12.8159789,5.26363786 12.3653359,5.7991747 C11.9146929,6.33471154 11.5767157,6.96560849 11.3513942,7.69188445 C11.1260728,8.41816049 11.0134136,9.1994456 11.0134136,10.0357634 L11.0134136,10.0357634 L11.0134136,10.0357634 L11.0134136,10.0357634 Z M23.3998733,4.33562586 L23.3998733,15.7138928 L25.195395,15.7138928 L25.195395,8.62723525 C25.195395,8.40715156 25.248204,8.13205118 25.3538235,7.80192575 C25.459443,7.47180026 25.6284316,7.15268382 25.8607943,6.84456675 C26.0931572,6.53644967 26.3959284,6.27235324 26.7691171,6.05226962 C27.1423059,5.83218601 27.5894215,5.72214578 28.1104775,5.72214578 C28.5188727,5.72214578 28.8533293,5.78450192 29.1138573,5.90921594 C29.3743853,6.03393002 29.5821004,6.20999429 29.737009,6.43741405 C29.8919176,6.6648338 30.001056,6.9325982 30.0644276,7.24071527 C30.1277993,7.54883235 30.1594846,7.88628888 30.1594846,8.25309493 L30.1594846,15.7138928 L31.9550064,15.7138928 L31.9550064,8.62723525 C31.9550064,7.74690072 32.2084893,7.04264367 32.7154628,6.51444291 C33.2224361,5.98624221 33.919514,5.72214578 34.8067175,5.72214578 C35.2432779,5.72214578 35.5988581,5.78816988 35.8734686,5.92022011 C36.1480792,6.05227027 36.3628356,6.23200257 36.5177441,6.45942232 C36.6726527,6.68684207 36.7782705,6.95460647 36.8346008,7.26272355 C36.8909313,7.57084062 36.919096,7.90096109 36.919096,8.25309493 L36.919096,15.7138928 L38.7146178,15.7138928 L38.7146178,7.37276478 C38.7146178,6.78587511 38.6266029,6.28335835 38.4505705,5.86519946 C38.274538,5.44704057 38.0280963,5.10591604 37.711238,4.84181569 C37.3943796,4.57771533 37.0141553,4.38331103 36.5705536,4.25859698 C36.1269518,4.13388292 35.6305478,4.07152683 35.0813267,4.07152683 C34.3631144,4.07152683 33.704763,4.24025508 33.1062527,4.57771665 C32.5077425,4.91517822 32.0254209,5.39201891 31.6592734,6.00825307 C31.433952,5.30398549 31.0466864,4.80513673 30.4974653,4.51169189 C29.9482441,4.21824705 29.3356605,4.07152683 28.6596959,4.07152683 C27.1246932,4.07152683 25.9488142,4.71709579 25.1320237,6.00825307 L25.0897762,6.00825307 L25.0897762,4.33562586 L23.3998733,4.33562586 L23.3998733,4.33562586 L23.3998733,4.33562586 Z M48.6718422,8.93535075 L42.3980779,8.93535075 C42.4262431,8.49518351 42.5177785,8.08069885 42.672687,7.69188445 C42.8275956,7.30307005 43.0388313,6.96194555 43.3064006,6.66850069 C43.5739699,6.37505589 43.8943442,6.14397148 44.2675329,5.9752407 C44.6407216,5.80650991 45.0596725,5.72214578 45.5243981,5.72214578 C45.9750412,5.72214578 46.3869508,5.80650991 46.7601396,5.9752407 C47.1333284,6.14397148 47.4572232,6.37138785 47.7318338,6.65749658 C48.0064442,6.94360531 48.2247212,7.28472981 48.386671,7.68088035 C48.5486208,8.07703089 48.6436769,8.49518351 48.6718422,8.93535075 L48.6718422,8.93535075 L48.6718422,8.93535075 L48.6718422,8.93535075 Z M50.4039925,12.1045392 L48.6295946,12.1045392 C48.474686,12.8528236 48.1543118,13.4103604 47.6684623,13.7771665 C47.1826129,14.1439725 46.5594674,14.3273728 45.7990074,14.3273728 C45.2075384,14.3273728 44.6935314,14.2246686 44.256971,14.0192572 C43.8204106,13.8138459 43.4613098,13.5387454 43.1796579,13.1939478 C42.898006,12.8491501 42.6938115,12.4530055 42.5670682,12.0055021 C42.4403248,11.5579987 42.3839953,11.084826 42.3980779,10.5859698 L50.5729829,10.5859698 C50.6011481,9.89637435 50.5412979,9.1701093 50.3934307,8.40715271 C50.2455634,7.64419613 49.9779981,6.93993907 49.5907268,6.29436036 C49.2034555,5.64878172 48.6894485,5.11692094 48.0486904,4.69876205 C47.4079325,4.28060314 46.6017161,4.07152683 45.6300171,4.07152683 C44.8836395,4.07152683 44.1971234,4.21824705 43.5704479,4.51169189 C42.9437725,4.80513673 42.4016008,5.21595334 41.9439165,5.74415406 C41.4862321,6.27235475 41.1306519,6.89591569 40.8771653,7.6148556 C40.6236786,8.33379542 40.4969372,9.12608463 40.4969372,9.99174689 C40.5251024,10.8574093 40.6483232,11.6570344 40.8666034,12.3906466 C41.0848836,13.1242586 41.412299,13.7551556 41.8488595,14.2833563 C42.2854199,14.811557 42.824071,15.2223736 43.464829,15.5158184 C44.105587,15.8092633 44.8625151,15.9559835 45.7356359,15.9559835 C46.9749042,15.9559835 48.0029181,15.633199 48.8197087,14.9876204 C49.6364991,14.3420417 50.1645885,13.3810242 50.4039925,12.1045392 L50.4039925,12.1045392 L50.4039925,12.1045392 L50.4039925,12.1045392 Z M54.5944235,4.33562586 L54.5944235,0.924346632 L52.7989017,0.924346632 L52.7989017,4.33562586 L50.9400087,4.33562586 L50.9400087,5.98624486 L52.7989017,5.98624486 L52.7989017,13.2269601 C52.7989017,13.7551608 52.8481901,14.1806495 52.9467682,14.5034388 C53.0453464,14.8262281 53.196732,15.0756525 53.4009296,15.2517194 C53.6051272,15.4277863 53.8726925,15.5488305 54.2036335,15.6148556 C54.5345744,15.6808807 54.9324017,15.7138928 55.3971274,15.7138928 L56.7701733,15.7138928 L56.7701733,14.0632737 L55.9463458,14.0632737 C55.6646939,14.0632737 55.4358552,14.0522697 55.2598227,14.0302613 C55.0837903,14.008253 54.9464871,13.960569 54.8479089,13.8872078 C54.7493308,13.8138465 54.6824395,13.7111423 54.6472329,13.5790922 C54.6120264,13.447042 54.5944235,13.2709778 54.5944235,13.0508941 L54.5944235,5.98624486 L56.7701733,5.98624486 L56.7701733,4.33562586 L54.5944235,4.33562586 L54.5944235,4.33562586 L54.5944235,4.33562586 Z M65.6500847,8.34112796 L68.5862909,8.34112796 C68.5440431,7.60751586 68.3750545,6.97295087 68.07932,6.43741405 C67.7835855,5.90187721 67.3998407,5.45438052 66.9280737,5.09491059 C66.4563068,4.73544066 65.9211763,4.46767626 65.3226661,4.29160936 C64.7241557,4.11554245 64.1010103,4.02751032 63.453211,4.02751032 C62.5660076,4.02751032 61.7773941,4.18156655 61.0873471,4.48968364 C60.3973,4.79780072 59.8128811,5.22695737 59.3340728,5.77716643 C58.8552647,6.32737554 58.4926433,6.98028048 58.2461979,7.73590099 C57.9997525,8.49152145 57.8765317,9.30948669 57.8765317,10.1898212 C57.8765317,11.0408112 58.0103143,11.8220964 58.2778836,12.5337001 C58.5454529,13.245304 58.918636,13.8578608 59.3974442,14.3713893 C59.8762524,14.8849178 60.4571506,15.2847303 61.1401566,15.570839 C61.8231623,15.8569478 62.5730493,16 63.3898397,16 C64.8403468,16 66.0303082,15.6038554 66.9597593,14.8115544 C67.8892107,14.0192533 68.4525059,12.8674996 68.6496622,11.3562586 L65.7557037,11.3562586 C65.6571255,12.0605262 65.4142044,12.6217311 65.026933,13.03989 C64.6396617,13.4580489 64.0869282,13.6671252 63.3687159,13.6671252 C62.9039903,13.6671252 62.5096835,13.557085 62.1857839,13.3370014 C61.8618843,13.1169177 61.6048808,12.8344814 61.4147657,12.4896837 C61.2246507,12.144886 61.0873475,11.7597453 61.0028519,11.3342503 C60.9183563,10.9087554 60.8761092,10.4906027 60.8761092,10.0797799 C60.8761092,9.65428489 60.9183563,9.22512823 61.0028519,8.79229714 C61.0873475,8.35946598 61.2316918,7.96332141 61.4358895,7.60385142 C61.6400872,7.2443815 61.9041318,6.95094109 62.2280314,6.72352134 C62.5519312,6.49610158 62.9532791,6.3823934 63.4320872,6.3823934 C64.7136034,6.3823934 65.4529283,7.03529839 65.6500847,8.34112796 L65.6500847,8.34112796 L65.6500847,8.34112796 L65.6500847,8.34112796 Z M70.0095059,0 L70.0095059,15.7138928 L73.0090836,15.7138928 L73.0090836,9.74965614 C73.0090836,8.59054902 73.1921546,7.75791179 73.5583017,7.25171937 C73.9244493,6.74552703 74.5159094,6.4924347 75.3327002,6.4924347 C76.0509123,6.4924347 76.5508369,6.72351903 76.8324887,7.18569462 C77.1141404,7.64787027 77.2549645,8.34845936 77.2549645,9.28748279 L77.2549645,15.7138928 L80.2545422,15.7138928 L80.2545422,8.71526821 C80.2545422,8.01100059 80.1946915,7.36909962 80.0749894,6.78954609 C79.9552875,6.20999249 79.7475724,5.71847975 79.4518382,5.31499312 C79.1561032,4.91150647 78.7512353,4.596058 78.2372205,4.36863824 C77.7232056,4.1412185 77.0648546,4.02751032 76.2621464,4.02751032 C75.698843,4.02751032 75.1214648,4.17789855 74.5299962,4.47867951 C73.938527,4.77946047 73.452685,5.25996919 73.0724547,5.92022011 L73.0090836,5.92022011 L73.0090836,0 L70.0095059,0 L70.0095059,0 L70.0095059,0 Z M82.0791089,7.83493813 C82.1213565,7.10132602 82.2973867,6.49243706 82.6072035,6.00825307 C82.9170202,5.52406914 83.3113275,5.13526053 83.7901356,4.84181569 C84.2689437,4.54837084 84.8075948,4.33929453 85.406105,4.21458048 C86.0046151,4.08986641 86.6066373,4.02751032 87.2121883,4.02751032 C87.7614099,4.02751032 88.3176641,4.06785838 88.8809675,4.14855572 C89.4442716,4.22925305 89.9582787,4.38697729 90.4230043,4.62173315 C90.8877298,4.85648902 91.2679538,5.18294152 91.5636888,5.60110045 C91.8594231,6.01925933 92.007288,6.57312814 92.007288,7.26272355 L92.007288,13.1829436 C92.007288,13.6964721 92.0354525,14.1879848 92.0917833,14.6574966 C92.1481136,15.1270083 92.24669,15.4791369 92.3875163,15.7138928 L89.3456909,15.7138928 C89.2893607,15.5378258 89.2435926,15.3580935 89.2083866,15.1746905 C89.1731799,14.9912875 89.1485359,14.8042193 89.1344534,14.61348 C88.6556452,15.1270086 88.0923495,15.486473 87.4445501,15.6918845 C86.7967507,15.8972959 86.1348792,16 85.4589147,16 C84.9378583,16 84.4520162,15.9339759 84.0013731,15.8019258 C83.5507301,15.6698755 83.1564236,15.4644673 82.818441,15.1856946 C82.4804591,14.906922 82.2164146,14.5547936 82.0262992,14.1292985 C81.8361843,13.7038035 81.7411284,13.1976187 81.7411284,12.6107291 C81.7411284,11.9651504 81.8502669,11.4332896 82.0685468,11.0151307 C82.2868274,10.5969718 82.5684748,10.2631833 82.9134985,10.0137552 C83.258522,9.76432706 83.6528284,9.57725877 84.0964306,9.45254468 C84.5400319,9.32783067 84.9871475,9.22879454 85.4377905,9.15543329 C85.8884335,9.0820721 86.3320286,9.02338399 86.7685891,8.9793673 C87.2051495,8.93535053 87.5924151,8.86932643 87.9303977,8.78129296 C88.2683796,8.69325958 88.5359446,8.56487933 88.733101,8.39614855 C88.9302575,8.22741776 89.0217929,7.98166143 89.0077105,7.65887207 C89.0077105,7.32141051 88.9549014,7.05364611 88.8492819,6.85557085 C88.7436624,6.65749558 88.602839,6.50343937 88.426806,6.39339756 C88.2507738,6.28335569 88.0465794,6.20999558 87.8142169,6.17331503 C87.5818538,6.13663441 87.3318918,6.11829437 87.0643219,6.11829437 C86.4728534,6.11829437 86.0081348,6.25034259 85.6701522,6.51444291 C85.3321703,6.77854328 85.1350167,7.21870398 85.0786866,7.83493813 L82.0791089,7.83493813 L82.0791089,7.83493813 L82.0791089,7.83493813 Z M89.0077105,10.1458047 C88.8809675,10.2631826 88.7225403,10.3548827 88.5324255,10.4209079 C88.3423101,10.4869329 88.1381155,10.5419531 87.9198357,10.5859698 C87.7015551,10.6299864 87.4727166,10.6666665 87.2333125,10.6960109 C86.9939085,10.7253555 86.754508,10.7620355 86.5151038,10.8060523 C86.2897824,10.850069 86.0679848,10.9087571 85.8497042,10.9821183 C85.6314244,11.0554795 85.4413124,11.1545157 85.279362,11.2792297 C85.1174123,11.4039437 84.9871503,11.561668 84.8885724,11.7524072 C84.7899939,11.9431463 84.740706,12.1852347 84.740706,12.4786795 C84.740706,12.7574521 84.7899939,12.9922044 84.8885724,13.1829436 C84.9871503,13.3736827 85.1209328,13.5240709 85.2899241,13.6341129 C85.4589154,13.7441546 85.656069,13.8211827 85.8813905,13.8651995 C86.106712,13.9092162 86.3390709,13.9312242 86.578475,13.9312242 C87.1699442,13.9312242 87.6276219,13.8285201 87.9515212,13.6231087 C88.2754206,13.4176973 88.5148212,13.1719409 88.6697299,12.8858322 C88.8246386,12.5997234 88.9196946,12.309951 88.9549007,12.0165062 C88.9901074,11.7230614 89.0077105,11.488309 89.0077105,11.3122421 L89.0077105,10.1458047 L89.0077105,10.1458047 L89.0077105,10.1458047 Z M97.8031263,4.33562586 L97.8031263,0.924346632 L94.8035494,0.924346632 L94.8035494,4.33562586 L92.9869038,4.33562586 L92.9869038,6.42640995 L94.8035494,6.42640995 L94.8035494,13.1389271 C94.8035494,13.7111445 94.8950849,14.1733132 95.0781581,14.5254471 C95.261232,14.8775808 95.5111945,15.1490133 95.828053,15.3397524 C96.1449107,15.5304916 96.5110528,15.6588718 96.9264899,15.7248969 C97.3419261,15.790922 97.7820008,15.823934 98.2467263,15.823934 C98.5424606,15.823934 98.8452316,15.8165979 99.1550491,15.8019258 C99.4648659,15.7872535 99.7465134,15.7579095 100,15.7138928 L100,13.2929849 C99.8591745,13.3223294 99.7113095,13.3443373 99.5564008,13.3590096 C99.4014919,13.3736819 99.2395451,13.3810179 99.0705538,13.3810179 C98.5635806,13.3810179 98.2256029,13.2929858 98.0566123,13.1169188 C97.887621,12.940852 97.8031263,12.5887235 97.8031263,12.0605227 L97.8031263,6.42640995 L100,6.42640995 L100,4.33562586 L97.8031263,4.33562586 L97.8031263,4.33562586 Z" id="Logo"></path>
            </g>
        </g>
    </g>
</svg>