<?xml version="1.0" encoding="UTF-8"?><svg version="1.1" width="24px" height="24px" viewBox="0 0 24.0 24.0" xmlns="http://www.w3.org/2000/svg" xmlns:xlink="http://www.w3.org/1999/xlink"><g transform="translate(1.9999999999997744 0.9999999999999964)"><path d="M11.4461643,0.700936124 C11.3279934,0.488588814 11.1547002,0.311572404 10.9443249,0.188298774 C10.7339496,0.065016096 10.4941454,0 10.2498768,0 C10.0055171,0 9.76571297,0.065016096 9.55533766,0.188298774 C9.34496235,0.311572404 9.17166922,0.488588814 9.05358936,0.700936124 L0.170237309,16.9866177 C0.0553627333,17.193265 -0.00326537553,17.4260599 0,17.6620215 C0.00354608313,17.897983 0.0688672064,18.1290589 0.189656709,18.3322681 C0.310449856,18.5355678 0.482522098,18.7040342 0.688915855,18.8211103 C0.895300502,18.9380958 1.12885445,18.99971 1.36652661,18.99971 L19.1331997,18.99971 C19.3708172,18.99971 19.6044258,18.9380958 19.8107923,18.8211103 C20.0171587,18.7040342 20.1892674,18.5355678 20.3100806,18.3322681 C20.4308027,18.1290589 20.4961292,17.897983 20.4997289,17.6620215 C20.5029626,17.4260599 20.4442871,17.193265 20.3294872,16.9866177 L11.4461643,0.700936124 Z" stroke="#000000" stroke-width="1.5" fill="none" stroke-linecap="round" stroke-linejoin="round"></path><g transform="translate(9.794321820408552 6.106690646780361)"><path d="M0.45555502,6.10713398 L0.45555502,0" stroke="#000000" stroke-width="1.5" fill="none" stroke-linecap="round" stroke-linejoin="round"></path></g><g transform="translate(9.623488687856508 14.815011321208722)"><path d="M0.626388153,0.791665516 C0.437697263,0.791665516 0.284721888,0.639756213 0.284721888,0.452380295 C0.284721888,0.265004377 0.437697263,0.113095074 0.626388153,0.113095074" stroke="#000000" stroke-width="1.5" fill="none" stroke-miterlimit="10"></path></g><g transform="translate(9.965154952960596 14.815011321208722)"><path d="M0.284721888,0.791665516 C0.473412777,0.791665516 0.626388153,0.639756213 0.626388153,0.452380295 C0.626388153,0.265004377 0.473412777,0.113095074 0.284721888,0.113095074" stroke="#000000" stroke-width="1.5" fill="none" stroke-miterlimit="10"></path></g></g></svg>