<?xml version="1.0" encoding="UTF-8"?>
<svg width="20px" height="20px" viewBox="0 0 20 20" version="1.1" xmlns="http://www.w3.org/2000/svg" xmlns:xlink="http://www.w3.org/1999/xlink">
    <title>call</title>
    <g id="Page-1" stroke="none" stroke-width="1" fill="none" fill-rule="evenodd">
        <path d="M14.4453125,19.5292969 C16.1542969,19.5292969 17.2773438,19.0703125 18.2636719,17.9570312 C18.3417969,17.8789062 18.4199219,17.7910156 18.4882812,17.7128906 C19.0742188,17.0585938 19.3476562,16.4140625 19.3476562,15.7988281 C19.3476562,15.0957031 18.9375,14.4414062 18.0683594,13.8359375 L15.2265625,11.8632813 C14.3476562,11.2578125 13.3222656,11.1894531 12.5019531,12 L11.75,12.7519531 C11.5253906,12.9765625 11.3300781,12.9863281 11.1152344,12.8496094 C10.5878906,12.5175781 9.5234375,11.5898438 8.80078125,10.8671875 C8.0390625,10.1152344 7.30664062,9.27539062 6.91601562,8.66015625 C6.7890625,8.43554688 6.79882812,8.25 7.0234375,8.02539062 L7.765625,7.2734375 C8.5859375,6.453125 8.51757812,5.41796875 7.91210938,4.54882812 L5.93945312,1.70703125 C5.33398438,0.837890625 4.6796875,0.4375 3.9765625,0.427734375 C3.36132812,0.41796875 2.71679688,0.701171875 2.0625,1.28710938 C1.97460938,1.36523438 1.89648438,1.43359375 1.81835938,1.50195312 C0.705078125,2.49804688 0.24609375,3.62109375 0.24609375,5.31054687 C0.24609375,8.10351562 1.96484375,11.5019531 5.11914062,14.65625 C8.25390625,17.7910156 11.6621094,19.5292969 14.4453125,19.5292969 Z M14.4550781,18.0253906 C11.9648438,18.0742188 8.77148438,16.1601562 6.2421875,13.640625 C3.69335938,11.1015625 1.69140625,7.80078125 1.74023438,5.31054688 C1.75976563,4.23632812 2.140625,3.30859375 2.90234375,2.64453125 C2.97070313,2.5859375 3.01953125,2.53710938 3.08789063,2.48828125 C3.38085938,2.234375 3.69335938,2.09765625 3.9765625,2.09765625 C4.25976563,2.09765625 4.51367188,2.20507812 4.69921875,2.49804688 L6.59375,5.33984375 C6.79882813,5.64257812 6.81835938,5.984375 6.515625,6.28710938 L5.65625,7.14648438 C4.98242188,7.8203125 5.03125,8.640625 5.51953125,9.29492188 C6.07617188,10.046875 7.04296875,11.140625 7.79492188,11.8828125 C8.53710938,12.6347656 9.71875,13.6894531 10.4804688,14.2558594 C11.1347656,14.7441406 11.9550781,14.7929688 12.6289063,14.1191406 L13.4882813,13.2597656 C13.7910156,12.9570312 14.1230469,12.9765625 14.4355469,13.171875 L17.2773438,15.0664062 C17.5703125,15.2617188 17.6777344,15.5058594 17.6777344,15.7988281 C17.6777344,16.0820312 17.5410156,16.3945312 17.2871094,16.6875 C17.2285156,16.7558594 17.1894531,16.8046875 17.1308594,16.8730469 C16.4667969,17.6347656 15.5390625,18.0058594 14.4550781,18.0253906 Z" id="call" fill="#3399FF" fill-rule="nonzero"></path>
    </g>
</svg>