<?xml version="1.0" encoding="UTF-8"?>
<svg width="20px" height="20px" viewBox="0 0 20 20" version="1.1" xmlns="http://www.w3.org/2000/svg" xmlns:xlink="http://www.w3.org/1999/xlink">
    <title>info</title>
    <g id="Page-1" stroke="none" stroke-width="1" fill="none" fill-rule="evenodd">
        <g id="info" fill="#3399FF" fill-rule="nonzero">
            <path d="M10.1984375,19.990625 C15.4502022,19.990625 19.7984375,15.6329779 19.7984375,10.390625 C19.7984375,5.1388603 15.4407905,0.790625 10.1890258,0.790625 C4.94667279,0.790625 0.5984375,5.1388603 0.5984375,10.390625 C0.5984375,15.6329779 4.95608456,19.990625 10.1984375,19.990625 Z M10.1984375,18.390625 C5.75608456,18.390625 2.20784926,14.8329779 2.20784926,10.390625 C2.20784926,5.94827206 5.74667279,2.390625 10.1890258,2.390625 C14.6313786,2.390625 18.1890258,5.94827206 18.198493,10.390625 C18.2078493,14.8329779 14.6407905,18.390625 10.1984375,18.390625 Z M10.1137316,7.04003677 C10.8007905,7.04003677 11.337261,6.49415441 11.337261,5.81650735 C11.337261,5.12944853 10.8007905,4.58356618 10.1137316,4.58356618 C9.43608456,4.58356618 8.89020224,5.12944853 8.89020224,5.81650735 C8.89020224,6.49415441 9.43608456,7.04003677 10.1137316,7.04003677 Z M12.3819669,15.5670956 C12.7678493,15.5670956 13.0690258,15.2941544 13.0690258,14.9082721 C13.0690258,14.5412132 12.7678493,14.2494486 12.3819669,14.2494486 L11.2149081,14.2494486 L11.2149081,9.45886032 C11.2149081,8.95062496 10.9607905,8.61180147 10.4807905,8.61180147 L8.71137864,8.61180147 C8.32549632,8.61180147 8.02431984,8.90356616 8.02431984,9.27062496 C8.02431984,9.65650736 8.32549632,9.92944856 8.71137864,9.92944856 L9.71843752,9.92944856 L9.71843752,14.2494486 L8.55137864,14.2494486 C8.16549632,14.2494486 7.86431986,14.5412132 7.86431986,14.9082721 C7.86431986,15.2941544 8.16549632,15.5670956 8.55137864,15.5670956 L12.3819669,15.5670956 Z" id="Shape"></path>
        </g>
    </g>
</svg>