<?xml version="1.0" encoding="UTF-8"?>
<svg width="32px" height="21px" viewBox="0 0 32 21" version="1.1" xmlns="http://www.w3.org/2000/svg" xmlns:xlink="http://www.w3.org/1999/xlink">
    <title>video</title>
    <g id="Page-1" stroke="none" stroke-width="1" fill="none" fill-rule="evenodd">
        <path d="M18.4164053,20.9316406 C21.3847751,20.9316406 23.1609308,19.2041467 23.1609308,16.2479423 L23.1609308,14.5691102 L27.759471,18.4620543 C28.246089,18.8635141 28.7813688,19.1433195 29.2801523,19.1433195 C30.3507119,19.1433195 31.056308,18.3525652 31.056308,17.2211783 L31.056308,4.64210291 C31.056308,3.51071605 30.3507119,2.71996179 29.2801523,2.71996179 C28.7813688,2.71996179 28.246089,2.99976715 27.759471,3.401227 L23.1609308,7.29417104 L23.1609308,5.62750437 C23.1609308,2.65913454 21.3847751,0.931640625 18.4164053,0.931640625 L5.70350992,0.931640625 C2.86896004,0.931640625 0.958984375,2.65913454 0.958984375,5.62750437 L0.958984375,16.2479423 C0.958984375,19.2041467 2.73514009,20.9316406 5.70350992,20.9316406 L18.4164053,20.9316406 Z M18.0757727,19.1068231 L6.04414253,19.1068231 C4.04900871,19.1068231 2.91762184,18.0727598 2.91762184,15.9559715 L2.91762184,5.90730972 C2.91762184,3.80268685 4.04900871,2.76862359 6.04414253,2.76862359 L18.0757727,2.76862359 C20.0587411,2.76862359 21.2022934,3.80268685 21.2022934,5.90730972 L21.2022934,15.9559715 C21.2022934,18.0727598 20.0587411,19.1068231 18.0757727,19.1068231 Z M28.9638506,16.9535384 C28.8543615,16.9535384 28.7813688,16.8805457 28.6718798,16.807553 L23.1609308,12.2576747 L23.1609308,9.60560656 L28.6718798,5.05572822 C28.7813688,4.97057007 28.8543615,4.92190826 28.9638506,4.92190826 C29.109836,4.92190826 29.1706632,5.03139732 29.1706632,5.20171362 L29.1706632,16.6615676 C29.1706632,16.8318839 29.109836,16.9535384 28.9638506,16.9535384 Z" id="video" fill="#3399FF" fill-rule="nonzero"></path>
    </g>
</svg>