<svg width="24" height="24" viewBox="0 0 24 24" fill="none" xmlns="http://www.w3.org/2000/svg">
<path d="M10 8.4C10 9.03652 10.2529 9.64697 10.7029 10.0971C11.153 10.5471 11.7635 10.8 12.4 10.8C13.0365 10.8 13.647 10.5471 14.0971 10.0971C14.5471 9.64697 14.8 9.03652 14.8 8.4C14.8 7.76348 14.5471 7.15303 14.0971 6.70294C13.647 6.25286 13.0365 6 12.4 6C11.7635 6 11.153 6.25286 10.7029 6.70294C10.2529 7.15303 10 7.76348 10 8.4V8.4Z" stroke="#808080" stroke-width="1.5" stroke-linecap="round" stroke-linejoin="round"/>
<path d="M12.4 3C13.8322 3 15.2057 3.56893 16.2184 4.58162C17.2311 5.59432 17.8 6.96783 17.8 8.4C17.8 11.0008 13.6944 16.8216 12.6432 18.2696C12.6152 18.3078 12.5786 18.3389 12.5363 18.3603C12.4941 18.3817 12.4474 18.3928 12.4 18.3928C12.3526 18.3928 12.3059 18.3817 12.2637 18.3603C12.2214 18.3389 12.1848 18.3078 12.1568 18.2696C11.1056 16.8216 7 11.0008 7 8.4C7 6.96783 7.56893 5.59432 8.58162 4.58162C9.59432 3.56893 10.9678 3 12.4 3V3Z" stroke="#808080" stroke-width="1.5" stroke-linecap="round" stroke-linejoin="round"/>
<path d="M17.1832 16.6272C19.3688 17.06 20.8 17.7824 20.8 18.6C20.8 19.9256 17.04 21 12.4 21C7.76 21 4 19.9256 4 18.6C4 17.784 5.4248 17.0632 7.6 16.6296" stroke="#808080" stroke-width="1.5" stroke-linecap="round" stroke-linejoin="round"/>
</svg>
