<?xml version="1.0" encoding="UTF-8"?><svg version="1.1" width="24px" height="24px" viewBox="0 0 24.0 24.0" xmlns="http://www.w3.org/2000/svg" xmlns:xlink="http://www.w3.org/1999/xlink"><defs><clipPath id="i0"><path d="M9.96744847,0 C10.6902359,0 11.3833407,0.287501884 11.8613959,0.768387619 L11.9026429,0.806876674 C12.9648396,1.87237385 12.962534,3.59718882 11.898222,4.65911284 L4.78048802,11.7804462 C4.67577233,11.8852148 4.54237751,11.9566291 4.39712688,11.9856825 L0.897519896,12.6856825 C0.372731311,12.790652 -0.089968609,12.3279721 0.0149782289,11.8031789 L0.714899625,8.30317894 C0.743936711,8.15797721 0.815306209,8.02462012 0.920013196,7.9199151 L8.04095435,0.799108019 C8.55155621,0.287501884 9.24466108,0 9.96744847,0 Z M9.96744847,1.5 C9.6430028,1.5 9.33187355,1.6290573 9.10213032,1.85925188 L2.14078445,8.81925016 L1.70578445,10.9932502 L3.87878445,10.5592502 L10.8380235,3.59799171 C11.2848808,3.15213661 11.3155742,2.44693694 10.9561645,1.99068525 L10.8731867,1.89691269 L10.7291898,1.76653914 C10.5138576,1.59481761 10.2455448,1.5 9.96744847,1.5 Z"></path></clipPath><clipPath id="i1"><path d="M16.1482707,0 C17.2839913,0 18.213993,0.880721388 18.2927157,1.99645803 L18.2981135,2.15 L18.2981135,8.45 C18.2981135,8.86421356 17.9623271,9.2 17.5481135,9.2 C17.1684177,9.2 16.8546226,8.91784612 16.8049601,8.55177056 L16.7981135,8.45 L16.7981135,2.15 C16.7981135,1.82363278 16.5576479,1.55347042 16.2442955,1.50704724 L16.1482707,1.5 L2.14984279,1.5 C1.82358878,1.5 1.55346372,1.74049261 1.50704639,2.05394351 L1.5,2.15 L1.5,17.55 C1.5,17.8763672 1.74046561,18.1465296 2.05381804,18.1929528 L2.14984279,18.2 L7.74921396,18.2 C8.16342753,18.2 8.49921396,18.5357864 8.49921396,18.95 C8.49921396,19.3296958 8.21706008,19.643491 7.85098452,19.6931534 L7.74921396,19.7 L2.14984279,19.7 C1.01412221,19.7 0.0841205651,18.8192786 0.00539777653,17.703542 L0,17.55 L0,2.15 C0,1.01423244 0.880622491,0.0841298529 1.99630755,0.00539837579 L2.14984279,0 L16.1482707,0 Z"></path></clipPath><clipPath id="i2"><path d="M6.34937117,0 C6.76358473,0 7.09937117,0.335786438 7.09937117,0.75 C7.09937117,1.12969577 6.81721729,1.44349096 6.45114173,1.49315338 L6.34937117,1.5 L0.75,1.5 C0.335786438,1.5 0,1.16421356 0,0.75 C0,0.370304234 0.282153882,0.0565090391 0.648229443,0.006846616 L0.75,0 L6.34937117,0 Z"></path></clipPath><clipPath id="i3"><path d="M9.14905676,0 C9.56327032,0 9.89905676,0.335786438 9.89905676,0.75 C9.89905676,1.12969577 9.61690288,1.44349096 9.25082732,1.49315338 L9.14905676,1.5 L0.75,1.5 C0.335786438,1.5 0,1.16421356 0,0.75 C0,0.370304234 0.282153882,0.0565090391 0.648229443,0.006846616 L0.75,0 L9.14905676,0 Z"></path></clipPath><clipPath id="i4"><path d="M7.74921396,0 C8.16342753,0 8.49921396,0.335786438 8.49921396,0.75 C8.49921396,1.12969577 8.21706008,1.44349096 7.85098452,1.49315338 L7.74921396,1.5 L0.75,1.5 C0.335786438,1.5 0,1.16421356 0,0.75 C0,0.370304234 0.282153882,0.0565090391 0.648229443,0.006846616 L0.75,0 L7.74921396,0 Z"></path></clipPath></defs><g transform="translate(11.052215553059789 11.049749843587382)"><g clip-path="url(#i0)"><polygon points="-1.73472348e-18,0 12.6978752,0 12.6978752,12.7006672 -1.73472348e-18,12.7006672 -1.73472348e-18,0" stroke="none" fill="#000000"></polygon></g></g><g transform="translate(1.25 1.25)"><g clip-path="url(#i1)"><polygon points="0,0 18.2981135,0 18.2981135,19.7 0,19.7 0,0" stroke="none" fill="#000000"></polygon></g></g><g transform="translate(8.24921396478032 5.44999999999999)"><g clip-path="url(#i2)"><polygon points="0,0 7.09937117,0 7.09937117,1.5 0,1.5 0,0" stroke="none" fill="#000000"></polygon></g></g><g transform="translate(5.449528378868205 9.65000000000001)"><g clip-path="url(#i3)"><polygon points="0,0 9.89905676,0 9.89905676,1.5 0,1.5 0,0" stroke="none" fill="#000000"></polygon></g></g><g transform="translate(5.449528378868203 13.84999999999997)"><g clip-path="url(#i4)"><polygon points="0,0 8.49921396,0 8.49921396,1.5 0,1.5 0,0" stroke="none" fill="#000000"></polygon></g></g></svg>