<?xml version="1.0" encoding="UTF-8"?><svg version="1.1" width="24px" height="24px" viewBox="0 0 24.0 24.0" xmlns="http://www.w3.org/2000/svg" xmlns:xlink="http://www.w3.org/1999/xlink"><defs><clipPath id="i0"><path d="M3.55,0 C5.5026473,0 7.1,1.52128829 7.1,3.41666667 C7.1,5.31204505 5.5026473,6.83333333 3.55,6.83333333 C1.5973527,6.83333333 0,5.31204505 0,3.41666667 C0,1.52128829 1.5973527,0 3.55,0 Z M3.55,1.5 C2.4098527,1.5 1.5,2.36652638 1.5,3.41666667 C1.5,4.46680695 2.4098527,5.33333333 3.55,5.33333333 C4.6901473,5.33333333 5.6,4.46680695 5.6,3.41666667 C5.6,2.36652638 4.6901473,1.5 3.55,1.5 Z"></path></clipPath><clipPath id="i1"><path d="M0.75,0 C1.12969577,0 1.44349096,0.282153882 1.49315338,0.648229443 L1.5,0.75 L1.5,6.08333333 C1.5,6.4975469 1.16421356,6.83333333 0.75,6.83333333 C0.370304234,6.83333333 0.0565090391,6.55117945 0.006846616,6.18510389 L0,6.08333333 L0,0.75 C0,0.335786438 0.335786438,0 0.75,0 Z"></path></clipPath><clipPath id="i2"><path d="M4.95,0 C7.67584594,0 9.9,2.11824194 9.9,4.75 L9.9,7.41666661 C9.9,7.83088017 9.56421356,8.16666661 9.15,8.16666661 L8.424,8.16633327 L7.7958995,14.1616527 C7.75945546,14.5087388 7.49009489,14.7798672 7.15299648,14.8262948 L7.05,14.8333333 L2.85,14.8333333 C2.46610639,14.8333333 2.14418895,14.5434475 2.1041005,14.1616527 L1.475,8.16633327 L0.75,8.16666661 C0.370304234,8.16666661 0.0565090391,7.88451273 0.006846616,7.51843716 L0,7.41666661 L0,4.75 C0,2.11824194 2.22415406,0 4.95,0 Z M4.95,1.5 C3.03665405,1.5 1.5,2.96348003 1.5,4.75 L1.5,6.66633327 L2.15,6.66666661 C2.49899419,6.66666661 2.79676841,6.90624166 2.87814397,7.2366488 L2.8958995,7.33834716 L3.525,13.3333333 L6.374,13.3333333 L7.0041005,7.33834716 C7.04054454,6.99126104 7.30990511,6.7201327 7.64700352,6.67370512 L7.75,6.66666661 L8.399,6.66633327 L8.4,4.75 C8.4,3.0230307 6.96408216,1.59792427 5.14003599,1.50483603 Z"></path></clipPath><clipPath id="i3"><path d="M10.55,0 C11.6781683,0 12.6152093,0.84570502 12.6945585,1.93354707 L12.7,2.08333333 L12.7,13.4166667 C12.7,14.5252741 11.8120097,15.4191795 10.7025939,15.4948147 L10.55,15.5 L2.15,15.5 C1.73578644,15.5 1.4,15.1642136 1.4,14.75 C1.4,14.3703042 1.68215388,14.056509 2.04822944,14.0068466 L2.15,14 L10.55,14 C10.8835897,14 11.1478428,13.7772126 11.1931318,13.5009728 L11.2,13.4166667 L11.2,2.08333333 C11.2,1.79809641 10.9660733,1.54937841 10.6478472,1.50651429 L10.55,1.5 L0.75,1.5 C0.335786438,1.5 0,1.16421356 0,0.75 C0,0.370304234 0.282153882,0.0565090391 0.648229443,0.006846616 L0.75,0 L10.55,0 Z"></path></clipPath></defs><g transform="translate(2.6500000000000075 1.25)"><g clip-path="url(#i0)"><polygon points="0,0 7.1,0 7.1,6.83333333 0,6.83333333 0,0" stroke="none" fill="#000000"></polygon></g></g><g transform="translate(5.450000000000002 7.91666666666665)"><g clip-path="url(#i1)"><polygon points="0,0 1.5,0 1.5,6.83333333 0,6.83333333 0,0" stroke="none" fill="#000000"></polygon></g></g><g transform="translate(1.25 7.916666726271328)"><g clip-path="url(#i2)"><polygon points="0,0 9.9,0 9.9,14.8333333 0,14.8333333 0,0" stroke="none" fill="#000000"></polygon></g></g><g transform="translate(11.049999999999999 1.25)"><g clip-path="url(#i3)"><polygon points="0,0 12.7,0 12.7,15.5 0,15.5 0,0" stroke="none" fill="#000000"></polygon></g></g></svg>