<svg id="document-Layer_1" xmlns="http://www.w3.org/2000/svg" xmlns:xlink="http://www.w3.org/1999/xlink" viewBox="0 0 53 53" enable-background="new 0 0 53 53" width="53" height="53"><filter height="130%" id="document-dropshadow"><feOffset dy="2" result="offsetblur"></feOffset><feComponentTransfer><feFuncA slope=".08" type="linear"></feFuncA></feComponentTransfer><feMerge><feMergeNode></feMergeNode><feMergeNode in="SourceGraphic"></feMergeNode></feMerge></filter><defs><circle id="document-SVGID_1_" cx="26.5" cy="26.5" r="25.5"></circle></defs><clipPath id="document-SVGID_2_"><use xlink:href="#document-SVGID_1_" overflow="visible"></use></clipPath><g clip-path="url(#document-SVGID_2_)"><path fill="#5157AE" d="M26.5-1.1C11.9-1.1-1.1 5.6-1.1 27.6h55.2c-.1-19-13-28.7-27.6-28.7z"></path><path fill="#5F66CD" d="M53 26.5H-1.1c0 14.6 13 27.6 27.6 27.6s27.6-13 27.6-27.6H53z"></path></g><path fill="#F5F5F5" filter="url(#document-dropshadow)" d="M21.4 16.3c-1.1 0-2 .9-2 2v15.6c0 1.1.9 2 2 2h11.7c1.1 0 2-.9 2-2V22.1l-5.9-5.9-7.8.1zm6.8 6.1v-4.7l5.4 5.4h-4.8c-.4 0-.6-.3-.6-.7z"></path></svg>