<svg id="image-Layer_1" xmlns="http://www.w3.org/2000/svg" xmlns:xlink="http://www.w3.org/1999/xlink" viewBox="0 0 53 53" enable-background="new 0 0 53 53" width="53" height="53"><filter height="130%" id="image-dropshadow"><feOffset dy="2" result="offsetblur"></feOffset><feComponentTransfer><feFuncA slope=".08" type="linear"></feFuncA></feComponentTransfer><feMerge><feMergeNode></feMergeNode><feMergeNode in="SourceGraphic"></feMergeNode></feMerge></filter><defs><circle id="image-SVGID_1_" cx="26.5" cy="26.5" r="25.5"></circle></defs><clipPath id="image-SVGID_2_"><use xlink:href="#image-SVGID_1_" overflow="visible"></use></clipPath><g clip-path="url(#image-SVGID_2_)"><path fill="#8333A3" d="M54.1 23.5H35.3v-2.4c0-1-.8-1.8-1.8-1.8H19.2c-.9 0-1.7.8-1.7 1.8v10.7c0 1 .8 1.8 1.8 1.8h14.2c.4 0 .8-.2 1.2-.4L42 48.8c6.7-3.6 12.1-13.2 12.1-25.3z"></path><path fill="#702A8C" d="M33.6 33.6l-7-.1-10.6 18c4.4 2.4 17 4.5 27-2.6l-8.3-15.7c-.3.3-.7.4-1.1.4z"></path><path fill="#9A37A3" d="M19.3 33.6c-1 0-1.8-.8-1.8-1.8l.1-1.5-18.7-.3c1.5 9.4 8.9 18.6 17.5 22l10.7-18.4h-7.8z"></path><path fill="#CE64DE" d="M17.6 21.2c0-.9 1.1-1.7 2-1.8L11.7 4.2C6.4 7.1-.8 12.9-1.1 30.8l18.7-.1v-9.5z"></path><path fill="#BF59CF" d="M19.3 19.4l9.5.4 9.8-17.3C33.3-.7 21.4-3 10.7 4.6l8.6 14.8z"></path><path fill="#AC44CF" d="M38.5 1.8L28.4 19.4h5.2c1 0 1.8.8 1.8 1.8l-.4 2.7 19.1-.1c-1-9.2-7.6-18.1-15.6-22z"></path></g><path fill="#F5F5F5" filter="url(#image-dropshadow)" d="M33.9 33.9H19.1c-1 0-1.9-.8-1.9-1.9V21c0-1 .8-1.9 1.9-1.9h14.8c1 0 1.9.8 1.9 1.9v11c-.1 1.1-.9 1.9-1.9 1.9zm-2.2-12c-1 0-1.8.8-1.8 1.8s.8 1.8 1.8 1.8 1.8-.8 1.8-1.8-.8-1.8-1.8-1.8zm1.9 8L28.9 27l-2.4 1.2-4.7-3.5-2.4 2.3v4.7h14.2v-1.8z"></path></svg>