<?xml version="1.0" encoding="UTF-8"?>
<svg width="51px" height="51px" viewBox="0 0 51 51" version="1.1" xmlns="http://www.w3.org/2000/svg" xmlns:xlink="http://www.w3.org/1999/xlink">
    <title>Group 2</title>
    <defs>
        <circle id="path-1" cx="25.5" cy="25.5" r="25.5"></circle>
    </defs>
    <g id="Page-1" stroke="none" stroke-width="1" fill="none" fill-rule="evenodd">
        <g id="Group-2">
            <g id="contact_upload_icon">
                <g id="Clipped">
                    <mask id="mask-2" fill="white">
                        <use xlink:href="#path-1"></use>
                    </mask>
                    <g id="contact-SVGID_1_"></g>
                    <g id="Group" mask="url(#mask-2)" fill-rule="nonzero">
                        <g transform="translate(-3.000000, -3.000000)" id="Path">
                            <path d="M28.5,0.9 C13.9,0.9 0.9,7.6 0.9,29.6 L56.1,29.6 C56,10.6 43.1,0.9 28.5,0.9 Z" fill="#0A7BBF"></path>
                            <path d="M55,28.5 L0.9,28.5 C0.9,43.1 13.9,56.1 28.5,56.1 C43.1,56.1 56.1,43.1 56.1,28.5 L55,28.5 Z" fill="#09ABF4"></path>
                        </g>
                    </g>
                </g>
            </g>
            <g id="videocam-24px" transform="translate(11.000000, 12.000000)">
                <polygon id="Path" points="0 0 28 0 28 28 0 28"></polygon>
                <path d="M19.8333333,12.25 L19.8333333,8.16666667 C19.8333333,7.525 19.3083333,7 18.6666667,7 L4.66666667,7 C4.025,7 3.5,7.525 3.5,8.16666667 L3.5,19.8333333 C3.5,20.475 4.025,21 4.66666667,21 L18.6666667,21 C19.3083333,21 19.8333333,20.475 19.8333333,19.8333333 L19.8333333,15.75 L24.5,20.4166667 L24.5,7.58333333 L19.8333333,12.25 Z" id="Path" fill="#FFFFFF" fill-rule="nonzero"></path>
            </g>
        </g>
    </g>
</svg>