<?xml version="1.0" encoding="UTF-8"?>
<svg width="16px" height="16px" viewBox="0 0 16 16" version="1.1" xmlns="http://www.w3.org/2000/svg" xmlns:xlink="http://www.w3.org/1999/xlink">
    <title>Icons/16/Close</title>
    <g id="Icons" stroke="none" stroke-width="1" fill="none" fill-rule="evenodd">
        <g id="Icons/16/Close" fill="#000000">
            <path d="M12.7800063,3.21999371 C13.0733312,3.51331867 13.0733312,3.98889238 12.7800063,4.28221733 L9.06222362,8 L12.7800063,11.7177827 C13.0733312,12.0111076 13.0733312,12.4866813 12.7800063,12.7800063 C12.4866813,13.0733312 12.0111076,13.0733312 11.7177827,12.7800063 L8,9.06222362 L4.28221733,12.7800063 C3.98889238,13.0733312 3.51331867,13.0733312 3.21999371,12.7800063 C2.92666876,12.4866813 2.92666876,12.0111076 3.21999371,11.7177827 L6.93777638,8 L3.21999371,4.28221733 C2.92666876,3.98889238 2.92666876,3.51331867 3.21999371,3.21999371 C3.51331867,2.92666876 3.98889238,2.92666876 4.28221733,3.21999371 L8,6.93777638 L11.7177827,3.21999371 C12.0111076,2.92666876 12.4866813,2.92666876 12.7800063,3.21999371 Z" id="Style"></path>
        </g>
    </g>
</svg>
