<?xml version="1.0" encoding="UTF-8"?>
<svg width="121px" height="147px" viewBox="0 0 121 147" version="1.1" xmlns="http://www.w3.org/2000/svg" xmlns:xlink="http://www.w3.org/1999/xlink">
    <title>Group 88</title>
    <g id="Page-1" stroke="none" stroke-width="1" fill="none" fill-rule="evenodd">
        <g id="Splash" transform="translate(-135.000000, -349.000000)">
            <g id="Group-88" transform="translate(135.000000, 349.000000)">
                <path d="M102.088523,137.522739 L102.088523,134.750669 L99.4792848,134.750669 L99.4792848,137.522739 L97.898619,137.522739 L97.898619,139.221509 L99.4792848,139.221509 L99.4792848,144.675227 C99.4792848,145.139647 99.5587906,145.515249 99.7178024,145.802033 C99.8768141,146.087747 100.09476,146.308186 100.370529,146.463349 C100.645742,146.617978 100.964877,146.722311 101.325711,146.776351 C101.687102,146.829856 102.070176,146.856608 102.474377,146.856608 C102.731798,146.856608 102.995335,146.850722 103.264988,146.838951 C103.53464,146.82718 103.779274,146.803103 104,146.767255 L104,144.800428 C103.877127,144.82397 103.748695,144.842162 103.614146,144.853933 C103.479042,144.866239 103.338378,144.871589 103.191042,144.871589 C102.750145,144.871589 102.456029,144.800428 102.309249,144.657036 C102.161913,144.514179 102.088523,144.227929 102.088523,143.798823 L102.088523,139.221509 L104,139.221509 L104,137.522739 L102.088523,137.522739 Z M94.4364995,142.242911 C94.3264144,142.338684 94.1885301,142.41359 94.0234025,142.46656 C93.8577189,142.520599 93.6798037,142.565008 93.4902127,142.600856 C93.3000658,142.636704 93.1010231,142.666132 92.8930847,142.690209 C92.6845903,142.714286 92.4760958,142.744248 92.2681574,142.779561 C92.0718946,142.815944 91.8789678,142.863028 91.6893768,142.922953 C91.4992299,142.982343 91.3341023,143.0626 91.1928821,143.164259 C91.0522179,143.265383 90.9387969,143.393793 90.8531752,143.548957 C90.7669975,143.703585 90.7247426,143.900482 90.7247426,144.138577 C90.7247426,144.364901 90.7669975,144.556447 90.8531752,144.711075 C90.9387969,144.866239 91.0549978,144.988229 91.2023339,145.077582 C91.3491139,145.166934 91.5209133,145.229535 91.7166201,145.265383 C91.9128829,145.300696 92.1152615,145.318887 92.3231999,145.318887 C92.8374862,145.318887 93.2361275,145.23542 93.517456,145.069021 C93.7993405,144.901552 94.0078349,144.70198 94.1423833,144.469235 C94.2774877,144.237025 94.3603295,144.001605 94.3909087,143.762975 C94.4209319,143.52488 94.4364995,143.333868 94.4364995,143.191011 L94.4364995,142.242911 Z M88.4090645,140.365436 C88.4452035,139.769395 88.5986554,139.275013 88.8683082,138.881755 C89.137961,138.488497 89.4810038,138.172285 89.8974367,137.934189 C90.3138696,137.695559 90.7825651,137.52595 91.3035232,137.424291 C91.8239253,137.323167 92.3476633,137.272338 92.8747372,137.272338 C93.3523284,137.272338 93.8365915,137.304976 94.3264144,137.370787 C94.8162373,137.436062 95.2638054,137.564473 95.6680066,137.755484 C96.0722078,137.94596 96.4030189,138.210808 96.6604401,138.551097 C96.9178612,138.890851 97.0462938,139.340289 97.0462938,139.900482 L97.0462938,144.711075 C97.0462938,145.128411 97.0707571,145.527555 97.1196838,145.909042 C97.1686105,146.29053 97.2547882,146.576779 97.3771049,146.767255 L94.7306156,146.767255 C94.6816889,146.624398 94.641658,146.477796 94.6110788,146.329053 C94.5804996,146.18031 94.5593722,146.027822 94.5471405,145.873194 C94.1307076,146.29053 93.6403287,146.582665 93.0765598,146.749064 C92.5127909,146.916533 91.9373462,147 91.3491139,147 C90.895986,147 90.4728813,146.94596 90.0809118,146.838951 C89.6889423,146.731407 89.3458994,146.564473 89.0517833,146.338149 C88.7576672,146.111825 88.5280453,145.825575 88.3629177,145.479936 C88.1972341,145.134296 88.1149483,144.722846 88.1149483,144.245586 C88.1149483,143.721241 88.2100218,143.288925 88.3996127,142.949706 C88.5897596,142.609952 88.8343931,142.338684 89.1346251,142.135902 C89.4348571,141.933119 89.7778999,141.781166 90.1637536,141.680043 C90.5496073,141.578919 90.9387969,141.498662 91.3307664,141.438202 C91.722736,141.378812 92.1085897,141.331193 92.4883275,141.29588 C92.8686213,141.259497 93.2049924,141.206528 93.4991085,141.134831 C93.7937806,141.063135 94.0261824,140.958801 94.1979818,140.82183 C94.3692253,140.684323 94.4487311,140.484751 94.4364995,140.222579 C94.4364995,139.948636 94.3909087,139.730872 94.2986151,139.569823 C94.2068776,139.408775 94.0845609,139.284109 93.931109,139.194757 C93.7782131,139.104869 93.6002978,139.045479 93.3984752,139.015516 C93.1960966,138.985554 92.9787064,138.971108 92.7457486,138.971108 C92.2314624,138.971108 91.8267052,139.078117 91.533145,139.293205 C91.2390289,139.507223 91.0672295,139.865169 91.0183028,140.365436 L88.4090645,140.365436 Z M77.908173,134 L77.908173,146.767255 L80.5179673,146.767255 L80.5179673,141.921348 C80.5179673,140.979668 80.676979,140.302836 80.9955585,139.891921 C81.314138,139.480471 81.8284243,139.275013 82.5395293,139.275013 C83.1644566,139.275013 83.599237,139.462814 83.8438704,139.838416 C84.0890599,140.213483 84.2119326,140.783307 84.2119326,141.546281 L84.2119326,146.767255 L86.8217269,146.767255 L86.8217269,141.080792 C86.8217269,140.508828 86.7694643,139.987159 86.6649391,139.516854 C86.5609698,139.045479 86.3802747,138.646335 86.1228535,138.318352 C85.8659884,137.990369 85.5134938,137.734617 85.0664818,137.549492 C84.6194697,137.364366 84.046249,137.272338 83.3479317,137.272338 C82.8581088,137.272338 82.3554982,137.394864 81.8406559,137.638844 C81.3263697,137.88336 80.903821,138.273408 80.5730098,138.810059 L80.5179673,138.810059 L80.5179673,134 L77.908173,134 Z M74.1152423,140.776886 L76.6699941,140.776886 C76.633299,140.180845 76.486519,139.665597 76.2290978,139.23007 C75.9716767,138.795078 75.6380856,138.431247 75.2272126,138.139112 C74.8168956,137.846977 74.351536,137.629749 73.8305779,137.486891 C73.3101758,137.344034 72.7680903,137.272338 72.2043213,137.272338 C71.432614,137.272338 70.7465283,137.397539 70.1460643,137.647405 C69.5456004,137.897806 69.0374299,138.247191 68.6204411,138.693419 C68.2040082,139.140717 67.8887646,139.671482 67.6741544,140.285179 C67.4595441,140.899411 67.3527949,141.563938 67.3527949,142.279294 C67.3527949,142.970572 67.4689958,143.605136 67.7019536,144.183521 C67.9343554,144.76137 68.2590507,145.259497 68.6760396,145.676297 C69.0924725,146.094168 69.597863,146.418406 70.1916551,146.65115 C70.7860032,146.88336 71.4381738,147 72.1492788,147 C73.4108091,147 74.4466094,146.677903 75.2550119,146.034243 C76.0634143,145.390583 76.5537932,144.454789 76.7250366,143.226859 L74.2075358,143.226859 C74.1219141,143.798823 73.9100838,144.254682 73.5731568,144.594971 C73.2362298,144.934724 72.7558586,145.104334 72.1309313,145.104334 C71.7267301,145.104334 71.3831313,145.014981 71.1018028,144.836276 C70.8199183,144.657036 70.5964123,144.427501 70.4307287,144.147673 C70.2656011,143.867309 70.1460643,143.554307 70.0721183,143.208668 C69.9992842,142.863028 69.9620332,142.52381 69.9620332,142.189941 C69.9620332,141.843767 69.9992842,141.495452 70.0721183,141.143927 C70.1460643,140.791867 70.271717,140.470305 70.4490762,140.17817 C70.6269915,139.886035 70.8566133,139.64794 71.1384978,139.462814 C71.4203823,139.277689 71.769541,139.185126 72.1859738,139.185126 C73.3007241,139.185126 73.9439989,139.716426 74.1152423,140.776886 L74.1152423,140.776886 Z M64.4972552,137.522739 L64.4972552,134.750669 L62.934937,134.750669 L62.934937,137.522739 L61.3175762,137.522739 L61.3175762,138.863563 L62.934937,138.863563 L62.934937,144.746923 C62.934937,145.17603 62.9777478,145.521669 63.0639255,145.783307 C63.1495472,146.046014 63.2813157,146.248796 63.458675,146.391653 C63.6365902,146.535045 63.868992,146.632959 64.1569923,146.686998 C64.4449926,146.740503 64.7908154,146.767255 65.1955726,146.767255 L66.3898287,146.767255 L66.3898287,145.425896 L65.6731638,145.425896 C65.4279744,145.425896 65.2294877,145.417335 65.0760358,145.399679 C64.9231398,145.381487 64.803603,145.342429 64.7179813,145.283039 C64.6318036,145.223649 64.5734252,145.139647 64.543402,145.032638 C64.5122668,144.925629 64.4972552,144.782236 64.4972552,144.603531 L64.4972552,138.863563 L66.3898287,138.863563 L66.3898287,137.522739 L64.4972552,137.522739 Z M60.8516606,143.834671 L59.3076898,143.834671 C59.1731414,144.443018 58.8940369,144.895666 58.4714882,145.193686 C58.0489395,145.491707 57.506854,145.640984 56.8452316,145.640984 C56.3303894,145.640984 55.8833773,145.557517 55.5036395,145.390583 C55.1239016,145.223649 54.811438,145 54.5662485,144.719636 C54.3210591,144.439807 54.1436998,144.11771 54.0336147,143.753879 C53.9229737,143.390583 53.874047,143.006421 53.8862787,142.600856 L60.9984407,142.600856 C61.022904,142.040663 60.9706414,141.450508 60.8422089,140.830926 C60.7137763,140.210808 60.4808185,139.638309 60.1438915,139.1145 C59.8069645,138.58962 59.3599525,138.157838 58.8022994,137.817549 C58.2452022,137.477796 57.543549,137.308186 56.6978956,137.308186 C56.0485049,137.308186 55.4513769,137.426966 54.9065114,137.666132 C54.36109,137.904227 53.8896146,138.238095 53.4915292,138.667202 C53.0928879,139.095773 52.7837601,139.602996 52.563034,140.186731 C52.3428639,140.771001 52.2322229,141.41466 52.2322229,142.118245 C52.2566862,142.821295 52.3639913,143.47084 52.5541383,144.066881 C52.7437292,144.663456 53.0289496,145.17603 53.4086874,145.604601 C53.7884253,146.034243 54.2571208,146.367576 54.8147739,146.606742 C55.371871,146.844837 56.0307134,146.964152 56.7901891,146.964152 C57.8682443,146.964152 58.7628244,146.701445 59.4733734,146.1771 C60.1839224,145.65222 60.6431662,144.871589 60.8516606,143.834671 L60.8516606,143.834671 Z M59.3443849,141.259497 L53.8862787,141.259497 C53.910742,140.902087 53.9908039,140.565543 54.1253523,140.249866 C54.2599007,139.933654 54.4439318,139.656501 54.6768896,139.417871 C54.9092913,139.179775 55.1878399,138.991974 55.5125352,138.854468 C55.8372306,138.717496 56.2019568,138.64901 56.606158,138.64901 C56.9981275,138.64901 57.356738,138.717496 57.6814333,138.854468 C58.0061286,138.991974 58.2880131,139.176565 58.5265307,139.408775 C58.7656043,139.64152 58.9557513,139.919208 59.0964155,140.24077 C59.2376357,140.562868 59.3199215,140.902087 59.3443849,141.259497 L59.3443849,141.259497 Z M37.3579522,137.522739 L37.3579522,146.767255 L38.9202705,146.767255 L38.9202705,141.009631 C38.9202705,140.830926 38.9658612,140.607277 39.0581548,140.339219 C39.1498923,140.070626 39.2966724,139.811129 39.499051,139.561263 C39.7008736,139.310861 39.9644106,139.095773 40.2891059,138.917068 C40.6138012,138.738363 41.0029908,138.64901 41.4561187,138.64901 C41.8113932,138.64901 42.1021735,138.699839 42.3290154,138.801498 C42.5558573,138.902622 42.7365525,139.045479 42.8711009,139.23007 C43.0062053,139.415195 43.1012788,139.632424 43.1563213,139.882825 C43.2113638,140.133226 43.2386071,140.407705 43.2386071,140.70519 L43.2386071,146.767255 L44.8009254,146.767255 L44.8009254,141.009631 C44.8009254,140.294275 45.0216515,139.721776 45.4625477,139.293205 C45.9034439,138.863563 46.5100237,138.64901 47.2817311,138.64901 C47.661469,138.64901 47.9711527,138.702515 48.2102263,138.810059 C48.4487439,138.917068 48.6355549,139.06367 48.7706593,139.248261 C48.9052077,139.432852 48.9969453,139.650615 49.046428,139.900482 C49.0947987,140.150883 49.119818,140.419476 49.119818,140.70519 L49.119818,146.767255 L50.6815803,146.767255 L50.6815803,139.989834 C50.6815803,139.513644 50.6054103,139.104869 50.4519584,138.765115 C50.2990625,138.425361 50.0844522,138.148743 49.8086836,137.934189 C49.5334709,137.719101 49.2021038,137.561263 48.8168061,137.460139 C48.4303964,137.35848 47.998396,137.308186 47.5208047,137.308186 C46.8958774,137.308186 46.3232127,137.445158 45.8028106,137.719101 C45.2818525,137.993579 44.8620837,138.380952 44.5435042,138.881755 C44.3477975,138.309791 44.0103145,137.904227 43.5327232,137.666132 C43.055132,137.426966 42.5219422,137.308186 41.9342659,137.308186 C40.5987896,137.308186 39.575221,137.832531 38.8652279,138.881755 L38.8279769,138.881755 L38.8279769,137.522739 L37.3579522,137.522739 Z M26.581848,142.153558 C26.581848,142.833601 26.6797014,143.464955 26.8759642,144.049224 C27.071671,144.633494 27.3657871,145.142857 27.7583126,145.578384 C28.1502821,146.013376 28.6339892,146.35313 29.2099898,146.597646 C29.7859905,146.841627 30.4470568,146.964152 31.1948568,146.964152 C31.9543325,146.964152 32.6187348,146.841627 33.1886196,146.597646 C33.7585043,146.35313 34.2388755,146.013376 34.631401,145.578384 C35.0233705,145.142857 35.3174867,144.633494 35.5131935,144.049224 C35.7094562,143.464955 35.8073096,142.833601 35.8073096,142.153558 C35.8073096,141.474585 35.7094562,140.839486 35.5131935,140.249866 C35.3174867,139.659176 35.0233705,139.146602 34.631401,138.712146 C34.2388755,138.276619 33.7585043,137.934189 33.1886196,137.683788 C32.6187348,137.433387 31.9543325,137.308186 31.1948568,137.308186 C30.4470568,137.308186 29.7859905,137.433387 29.2099898,137.683788 C28.6339892,137.934189 28.1502821,138.276619 27.7583126,138.712146 C27.3657871,139.146602 27.071671,139.659176 26.8759642,140.249866 C26.6797014,140.839486 26.581848,141.474585 26.581848,142.153558 L26.581848,142.153558 Z M28.2359039,142.153558 C28.2359039,141.593365 28.3126298,141.096308 28.4655257,140.660781 C28.6184216,140.225789 28.830252,139.858748 29.0993488,139.561263 C29.3690016,139.263242 29.6842452,139.036383 30.0461915,138.881755 C30.4075818,138.726592 30.7900996,138.64901 31.1948568,138.64901 C31.599058,138.64901 31.9815758,138.726592 32.3435221,138.881755 C32.7049125,139.036383 33.0201561,139.263242 33.2898089,139.561263 C33.5594617,139.858748 33.77018,140.225789 33.9236319,140.660781 C34.0770838,141.096308 34.1532538,141.593365 34.1532538,142.153558 C34.1532538,142.714286 34.0770838,143.211878 33.9236319,143.64687 C33.77018,144.082397 33.5594617,144.445158 33.2898089,144.737293 C33.0201561,145.029428 32.7049125,145.253077 32.3435221,145.40824 C31.9815758,145.562868 31.599058,145.640984 31.1948568,145.640984 C30.7900996,145.640984 30.4075818,145.562868 30.0461915,145.40824 C29.6842452,145.253077 29.3690016,145.029428 29.0993488,144.737293 C28.830252,144.445158 28.6184216,144.082397 28.4655257,143.64687 C28.3126298,143.211878 28.2359039,142.714286 28.2359039,142.153558 L28.2359039,142.153558 Z M23.9653819,140.491172 L25.5821867,140.491172 C25.5215844,139.942215 25.3742483,139.4687 25.1412905,139.069556 C24.9088887,138.670412 24.6114367,138.339219 24.2500463,138.077047 C23.888656,137.814874 23.4722231,137.621188 23.0001917,137.495452 C22.5287163,137.370787 22.0233258,137.308186 21.4840202,137.308186 C20.7367762,137.308186 20.0812697,137.436062 19.5180567,137.692349 C18.9542878,137.948636 18.4855923,138.300161 18.1119703,138.747459 C17.7383483,139.194757 17.4597997,139.718566 17.2757686,140.321027 C17.0917375,140.922953 17,141.569288 17,142.261102 C17,142.952381 17.0950735,143.58748 17.2852204,144.165329 C17.4748113,144.743713 17.7566958,145.241306 18.1303178,145.658641 C18.5039398,146.075441 18.9692994,146.397539 19.5269525,146.624398 C20.0846056,146.850722 20.7245445,146.964152 21.4473252,146.964152 C22.6604848,146.964152 23.6190032,146.653826 24.3234364,146.034243 C25.0278696,145.414125 25.4659859,144.53237 25.6377853,143.387908 L24.038772,143.387908 C23.9409186,144.103264 23.6740457,144.657036 23.2392653,145.050294 C22.8044849,145.444088 22.2006851,145.640984 21.4289777,145.640984 C20.9391548,145.640984 20.5166061,145.545211 20.1607756,145.354735 C19.806057,145.163724 19.5180567,144.910647 19.2973306,144.594971 C19.0766045,144.278759 18.9142569,143.918138 18.8102876,143.512574 C18.7063184,143.107544 18.6540558,142.690209 18.6540558,142.261102 C18.6540558,141.796148 18.7029825,141.346174 18.8013919,140.911182 C18.8992453,140.47619 19.0615929,140.091493 19.2884349,139.758159 C19.5147208,139.424291 19.8182887,139.155698 20.1980266,138.953451 C20.5777644,138.750669 21.0492398,138.64901 21.6130088,138.64901 C22.2746311,138.64901 22.801149,138.810059 23.1936746,139.132156 C23.5856441,139.453719 23.8430652,139.906902 23.9653819,140.491172 L23.9653819,140.491172 Z" id="Fill-81" fill="#292A2C"></path>
                <text id="®" font-family="LucidaGrande, Lucida Grande" font-size="14.1894" font-weight="normal" fill="#000000">
                    <tspan x="105" y="139">®</tspan>
                </text>
                <path d="M13.6731181,0 L107.326882,0 C114.878469,0 121,6.12208485 121,13.6731181 L121,107.326882 C121,114.878469 114.878469,121 107.326882,121 L13.6731181,121 C6.12153056,121 0,114.878469 0,107.326882 L0,13.6731181 C0,6.12208485 6.12153056,0 13.6731181,0" id="Fill-84" fill="#FFFFFF"></path>
                <path d="M88.7766046,40.1901429 C87.0394734,37.1715033 84.785748,34.6483951 82.0148741,32.6224811 C79.2440002,30.5954585 76.1006464,29.0861387 72.5853669,28.0934132 C69.0700874,27.1012419 65.4101393,26.6046019 61.6055227,26.6046019 C56.3946834,26.6046019 51.7625184,27.4731675 47.7095818,29.2097444 C43.6566452,30.9468756 40.2245086,33.3663324 37.4120633,36.4681148 C34.599618,39.5698973 32.4700525,43.2503539 31.0228127,47.510039 C29.5750187,51.7702784 28.8511216,56.3813806 28.8511216,61.3438999 C28.8511216,66.1412421 29.6370987,70.54615 31.2084984,74.5575152 C32.7804525,78.5688803 34.9720979,82.0220798 37.7839889,84.9171137 C40.5964342,87.8121476 44.0080623,90.065873 48.0199818,91.6788442 C52.0313469,93.2918154 56.4357006,94.098301 61.233597,94.098301 C69.7529673,94.098301 76.7419548,91.8650841 82.2011141,87.3986505 C87.659719,82.9316625 90.9688043,76.4387606 92.1261527,67.9193904 L75.1289836,67.9193904 C74.5497552,71.8897384 73.1230239,75.0536008 70.84879,77.4104233 C68.5740017,79.7678001 65.3275507,80.9467657 61.1088828,80.9467657 C58.3795803,80.9467657 56.0637749,80.32652 54.1614666,79.0860288 C52.2591583,77.8455375 50.7492842,76.2530749 49.632953,74.3091952 C48.5160674,72.3653155 47.7095818,70.1941786 47.2134962,67.7957847 C46.7174105,65.3973907 46.4690906,63.0400139 46.4690906,60.7236543 C46.4690906,58.3252603 46.7174105,55.9058035 47.2134962,53.4652839 C47.7095818,51.0258728 48.5576388,48.7926559 49.7565587,46.7656334 C50.9565871,44.7391651 52.506924,43.0851768 54.4092323,41.8031141 C56.3120949,40.5210514 58.6694717,39.8797429 61.4813627,39.8797429 C69.0080074,39.8797429 73.3508353,43.5607538 74.508738,50.9222214 L91.754227,50.9222214 C91.505907,46.7861419 90.5137357,43.2093367 88.7766046,40.1901429 L88.7766046,40.1901429 Z M0,27.7525275 L0,107.119579 C0,114.791447 6.21465055,121 13.8804209,121 L107.119579,121 C114.791447,121 121,114.785349 121,107.119579 L121,13.8798666 C121,6.20855341 114.785349,0 107.119579,0 L51.0641185,0 L51.0641185,13.8726609 C51.0641185,21.5384312 44.8561194,27.7525275 37.1920119,27.7525275 L34.1877837,27.7525275 L23.8669852,40.1790572 L24.9899679,27.7525275 L0,27.7525275 Z" id="Fill-86" fill="#292A2C"></path>
            </g>
        </g>
    </g>
</svg>