<?xml version="1.0" encoding="UTF-8"?>
<svg width="16px" height="16px" viewBox="0 0 16 16" version="1.1" xmlns="http://www.w3.org/2000/svg" xmlns:xlink="http://www.w3.org/1999/xlink">
    <title>Icons/16/More</title>
    <g id="Icons" stroke="none" stroke-width="1" fill="none" fill-rule="evenodd">
        <g id="Icons/16/More" fill="#000000">
            <path d="M4,6.66666667 C3.26666667,6.66666667 2.66666667,7.26666667 2.66666667,8 C2.66666667,8.73333333 3.26666667,9.33333333 4,9.33333333 C4.73333333,9.33333333 5.33333333,8.73333333 5.33333333,8 C5.33333333,7.26666667 4.73333333,6.66666667 4,6.66666667 Z M12,6.66666667 C11.2666667,6.66666667 10.6666667,7.26666667 10.6666667,8 C10.6666667,8.73333333 11.2666667,9.33333333 12,9.33333333 C12.7333333,9.33333333 13.3333333,8.73333333 13.3333333,8 C13.3333333,7.26666667 12.7333333,6.66666667 12,6.66666667 Z M8,6.66666667 C7.26666667,6.66666667 6.66666667,7.26666667 6.66666667,8 C6.66666667,8.73333333 7.26666667,9.33333333 8,9.33333333 C8.73333333,9.33333333 9.33333333,8.73333333 9.33333333,8 C9.33333333,7.26666667 8.73333333,6.66666667 8,6.66666667 Z" id="Style"></path>
        </g>
    </g>
</svg>