<svg width="24" height="24" viewBox="0 0 24 24" fill="none" xmlns="http://www.w3.org/2000/svg">
<path d="M12.15 19.6913C11.1513 19.6913 10.2286 19.4266 9.38175 18.8971C8.53492 18.3676 7.86925 17.6586 7.38475 16.7703C7.27958 16.5741 7.26675 16.3686 7.34625 16.1538C7.42575 15.9391 7.56867 15.7792 7.775 15.6741C7.99167 15.5587 8.21758 15.5408 8.45275 15.6203C8.68808 15.6998 8.87175 15.8479 9.00375 16.0646C9.33592 16.6414 9.78342 17.0991 10.3463 17.4376C10.9089 17.7761 11.5204 17.9453 12.1808 17.9453C13.0103 17.9453 13.7375 17.7011 14.3625 17.2126C14.9875 16.7241 15.3 16.0914 15.3 15.3146C15.3 15.2056 15.2904 15.0966 15.2712 14.9876C15.2519 14.8786 15.2134 14.776 15.1557 14.6798C15.1366 14.4426 15.2052 14.2362 15.3615 14.0606C15.518 13.8849 15.7148 13.7875 15.952 13.7683C16.1892 13.749 16.3997 13.8176 16.5835 13.9741C16.7675 14.1304 16.8692 14.3271 16.8885 14.5643C16.959 14.7041 17.0054 14.8551 17.0278 15.0173C17.0503 15.1795 17.0615 15.3401 17.0615 15.4991C17.0615 16.7324 16.5679 17.7395 15.5807 18.5203C14.5936 19.301 13.45 19.6913 12.15 19.6913ZM3 11.7491C2.78717 11.7491 2.609 11.6772 2.4655 11.5336C2.32183 11.3901 2.25 11.2119 2.25 10.9991C2.25 10.7862 2.32183 10.6081 2.4655 10.4646C2.609 10.3209 2.78717 10.2491 3 10.2491H21C21.2128 10.2491 21.391 10.3209 21.5345 10.4646C21.6782 10.6081 21.75 10.7862 21.75 10.9991C21.75 11.2119 21.6782 11.3901 21.5345 11.5336C21.391 11.6772 21.2128 11.7491 21 11.7491H3ZM8.248 8.17206C8.03517 8.06956 7.88517 7.90548 7.798 7.67981C7.71083 7.45415 7.71858 7.23498 7.82125 7.02231C8.06475 6.14281 8.58617 5.45173 9.3855 4.94906C10.1848 4.44656 11.073 4.19531 12.05 4.19531C12.8052 4.19531 13.5161 4.35398 14.1827 4.67131C14.8494 4.98848 15.4083 5.44456 15.8595 6.03956C15.9917 6.21506 16.0356 6.41281 15.9913 6.63281C15.9471 6.85265 15.8321 7.02856 15.6462 7.16056C15.4397 7.3029 15.2189 7.35548 14.9837 7.31831C14.7484 7.28115 14.5462 7.16448 14.377 6.96831C14.0948 6.62081 13.7551 6.36281 13.3577 6.19431C12.9602 6.02565 12.5346 5.94131 12.0808 5.94131C11.4578 5.94131 10.8882 6.09873 10.372 6.41356C9.856 6.72823 9.53133 7.16698 9.398 7.72981C9.2955 7.95298 9.13142 8.10815 8.90575 8.19531C8.68008 8.28248 8.46083 8.27473 8.248 8.17206Z" fill="#A1A1A1"/>
</svg>